<svg xmlns="http://www.w3.org/2000/svg" viewBox="0 0 496 512" width="100" height="100">
  <path fill="#1ED760" d="M249.7 0c-137 0-248 111-248 248 0 122.2 90 223.6 207.2 241.2 15.3 2.4 27.7-11.7 27.7-26.5 0-13.1-9.5-24.4-22.4-26.3-63.7-10.7-113.5-63-113.5-127 0-71.5 58.2-129.7 129.7-129.7 72.4 0 129.9 59.3 129.9 132.4 0 7.5-0.7 14.8-1.9 22-4.8 24.6-23.5 42.4-45.2 42.4-12.9 0-23.4-10.5-23.4-23.4V204.7c0-14.6-11.9-26.5-26.5-26.5s-26.5 11.9-26.5 26.5V336c0 57.3 47 104.3 104.3 104.3 58.1 0 104.7-46.5 104.7-104.3C392 178.4 317.6 99 223.5 99 165 99 113.3 139 95.2 195.2c-2.3 6.1-9.6 9.6-16.7 7.3 -6.1-2.2-9.6-9.6-7.3-16.7C86.8 99.2 165.4 0 249.7 0z"/>
</svg>
